<svg width="86" height="94" viewBox="0 0 86 94" fill="none" xmlns="http://www.w3.org/2000/svg">
<g filter="url(#filter0_di_631_547)">
<path d="M24.1986 5.19555L28.6872 16.5818C28.7325 16.6965 28.7514 16.8199 28.7425 16.9429C28.7335 17.066 28.697 17.1854 28.6356 17.2923C28.5742 17.3993 28.4895 17.4911 28.3878 17.5608C28.2861 17.6306 28.17 17.6765 28.0481 17.6953C28.0207 17.6993 25.0341 18.2071 21.4838 21.1438C17.9335 24.0804 16.8745 26.9188 16.8646 26.947C16.823 27.0627 16.7559 27.1676 16.6683 27.254C16.5807 27.3403 16.4748 27.4059 16.3585 27.4458C16.2422 27.4858 16.1184 27.4991 15.9962 27.4848C15.874 27.4705 15.7566 27.4289 15.6527 27.3632L5.30984 20.8153C5.10241 20.6845 4.93828 20.4954 4.8381 20.2716C4.73791 20.0478 4.70614 19.7993 4.74679 19.5575C4.78744 19.3157 4.89868 19.0913 5.06653 18.9126C5.23438 18.7338 5.45134 18.6087 5.69012 18.5529L11.2963 17.2465L10.0544 8.99299C10.0228 8.78113 10.0464 8.56469 10.123 8.36465C10.1996 8.1646 10.3266 7.98774 10.4916 7.85121C10.6567 7.71469 10.8542 7.62312 11.0651 7.5854C11.2759 7.54768 11.493 7.56508 11.6951 7.63591L19.5693 10.4036L21.9055 5.14049C22.0051 4.91612 22.169 4.7263 22.3765 4.59501C22.5839 4.46372 22.8256 4.39684 23.071 4.40281C23.3165 4.40879 23.5546 4.48736 23.7554 4.62859C23.9562 4.76982 24.1107 4.96739 24.1993 5.19635L24.1986 5.19555Z" fill="#FFE24D"/>
</g>
<g filter="url(#filter1_di_631_547)">
<circle cx="44.1734" cy="49.524" r="36.8257" fill="#FFE142"/>
</g>
<g filter="url(#filter2_dii_631_547)">
<rect x="12" y="18" width="63.4926" height="63.4926" rx="31.7463" fill="#C4C4C4"/>
</g>
<defs>
<filter id="filter0_di_631_547" x="0.436688" y="0.108563" width="29.7407" height="28.8129" filterUnits="userSpaceOnUse" color-interpolation-filters="sRGB">
<feFlood flood-opacity="0" result="BackgroundImageFix"/>
<feColorMatrix in="SourceAlpha" type="matrix" values="0 0 0 0 0 0 0 0 0 0 0 0 0 0 0 0 0 0 127 0" result="hardAlpha"/>
<feOffset dx="-1.43126" dy="-1.43126"/>
<feGaussianBlur stdDeviation="1.43126"/>
<feComposite in2="hardAlpha" operator="out"/>
<feColorMatrix type="matrix" values="0 0 0 0 0 0 0 0 0 0 0 0 0 0 0 0 0 0 0.2 0"/>
<feBlend mode="normal" in2="BackgroundImageFix" result="effect1_dropShadow_631_547"/>
<feBlend mode="normal" in="SourceGraphic" in2="effect1_dropShadow_631_547" result="shape"/>
<feColorMatrix in="SourceAlpha" type="matrix" values="0 0 0 0 0 0 0 0 0 0 0 0 0 0 0 0 0 0 127 0" result="hardAlpha"/>
<feOffset dx="-1.43126" dy="-1.43126"/>
<feGaussianBlur stdDeviation="1.43126"/>
<feComposite in2="hardAlpha" operator="arithmetic" k2="-1" k3="1"/>
<feColorMatrix type="matrix" values="0 0 0 0 1 0 0 0 0 0.950311 0 0 0 0 0.693099 0 0 0 1 0"/>
<feBlend mode="normal" in2="shape" result="effect2_innerShadow_631_547"/>
</filter>
<filter id="filter1_di_631_547" x="2.61902" y="10.3339" width="83.1096" height="83.1086" filterUnits="userSpaceOnUse" color-interpolation-filters="sRGB">
<feFlood flood-opacity="0" result="BackgroundImageFix"/>
<feColorMatrix in="SourceAlpha" type="matrix" values="0 0 0 0 0 0 0 0 0 0 0 0 0 0 0 0 0 0 127 0" result="hardAlpha"/>
<feOffset dy="2.36432"/>
<feGaussianBlur stdDeviation="2.36432"/>
<feComposite in2="hardAlpha" operator="out"/>
<feColorMatrix type="matrix" values="0 0 0 0 0 0 0 0 0 0 0 0 0 0 0 0 0 0 0.2 0"/>
<feBlend mode="normal" in2="BackgroundImageFix" result="effect1_dropShadow_631_547"/>
<feBlend mode="normal" in="SourceGraphic" in2="effect1_dropShadow_631_547" result="shape"/>
<feColorMatrix in="SourceAlpha" type="matrix" values="0 0 0 0 0 0 0 0 0 0 0 0 0 0 0 0 0 0 127 0" result="hardAlpha"/>
<feOffset dx="-0.827511" dy="-0.827511"/>
<feGaussianBlur stdDeviation="2.36432"/>
<feComposite in2="hardAlpha" operator="arithmetic" k2="-1" k3="1"/>
<feColorMatrix type="matrix" values="0 0 0 0 1 0 0 0 0 0.975088 0 0 0 0 0.843056 0 0 0 1 0"/>
<feBlend mode="normal" in2="shape" result="effect2_innerShadow_631_547"/>
</filter>
<filter id="filter2_dii_631_547" x="6.0892" y="12.0892" width="72.9495" height="72.95" filterUnits="userSpaceOnUse" color-interpolation-filters="sRGB">
<feFlood flood-opacity="0" result="BackgroundImageFix"/>
<feColorMatrix in="SourceAlpha" type="matrix" values="0 0 0 0 0 0 0 0 0 0 0 0 0 0 0 0 0 0 127 0" result="hardAlpha"/>
<feOffset dx="-1.18216" dy="-1.18216"/>
<feGaussianBlur stdDeviation="2.36432"/>
<feComposite in2="hardAlpha" operator="out"/>
<feColorMatrix type="matrix" values="0 0 0 0 0 0 0 0 0 0 0 0 0 0 0 0 0 0 0.25 0"/>
<feBlend mode="normal" in2="BackgroundImageFix" result="effect1_dropShadow_631_547"/>
<feBlend mode="normal" in="SourceGraphic" in2="effect1_dropShadow_631_547" result="shape"/>
<feColorMatrix in="SourceAlpha" type="matrix" values="0 0 0 0 0 0 0 0 0 0 0 0 0 0 0 0 0 0 127 0" result="hardAlpha"/>
<feOffset dx="1.18216" dy="1.18216"/>
<feGaussianBlur stdDeviation="2.36432"/>
<feComposite in2="hardAlpha" operator="arithmetic" k2="-1" k3="1"/>
<feColorMatrix type="matrix" values="0 0 0 0 0 0 0 0 0 0 0 0 0 0 0 0 0 0 0.25 0"/>
<feBlend mode="normal" in2="shape" result="effect2_innerShadow_631_547"/>
<feColorMatrix in="SourceAlpha" type="matrix" values="0 0 0 0 0 0 0 0 0 0 0 0 0 0 0 0 0 0 127 0" result="hardAlpha"/>
<feOffset dx="-1.18216" dy="-1.18216"/>
<feGaussianBlur stdDeviation="2.36432"/>
<feComposite in2="hardAlpha" operator="arithmetic" k2="-1" k3="1"/>
<feColorMatrix type="matrix" values="0 0 0 0 0 0 0 0 0 0 0 0 0 0 0 0 0 0 0.25 0"/>
<feBlend mode="normal" in2="effect2_innerShadow_631_547" result="effect3_innerShadow_631_547"/>
</filter>
</defs>
</svg>
