<svg width="51" height="16" viewBox="0 0 51 16" fill="none" xmlns="http://www.w3.org/2000/svg">
<path d="M0.296 0.95H5.93C7.19 0.95 8.27 1.172 9.17 1.616C10.082 2.06 10.778 2.684 11.258 3.488C11.738 4.292 11.978 5.234 11.978 6.314C11.978 7.406 11.738 8.36 11.258 9.176C10.778 9.98 10.082 10.604 9.17 11.048C8.27 11.492 7.19 11.714 5.93 11.714H3.572V15.62H0.296V0.95ZM5.786 8.816C6.71 8.816 7.424 8.6 7.928 8.168C8.444 7.736 8.702 7.118 8.702 6.314C8.702 5.51 8.444 4.898 7.928 4.478C7.424 4.058 6.71 3.848 5.786 3.848H3.572V8.816H5.786ZM18.6234 4.82C19.6914 4.82 20.6514 5.06 21.5034 5.54C22.3554 6.008 23.0214 6.662 23.5014 7.502C23.9814 8.342 24.2214 9.29 24.2214 10.346C24.2214 11.402 23.9814 12.35 23.5014 13.19C23.0214 14.03 22.3554 14.684 21.5034 15.152C20.6514 15.632 19.6914 15.872 18.6234 15.872C17.5554 15.872 16.5954 15.632 15.7434 15.152C14.8914 14.684 14.2254 14.03 13.7454 13.19C13.2654 12.35 13.0254 11.402 13.0254 10.346C13.0254 9.29 13.2654 8.342 13.7454 7.502C14.2254 6.662 14.8914 6.008 15.7434 5.54C16.5954 5.06 17.5554 4.82 18.6234 4.82ZM18.6234 7.556C17.8794 7.556 17.2734 7.82 16.8054 8.348C16.3494 8.864 16.1214 9.53 16.1214 10.346C16.1214 11.162 16.3494 11.834 16.8054 12.362C17.2734 12.878 17.8794 13.136 18.6234 13.136C19.3674 13.136 19.9674 12.878 20.4234 12.362C20.8914 11.834 21.1254 11.162 21.1254 10.346C21.1254 9.53 20.8914 8.864 20.4234 8.348C19.9674 7.82 19.3674 7.556 18.6234 7.556ZM26.1886 0.95H31.8226C33.0826 0.95 34.1626 1.172 35.0626 1.616C35.9746 2.06 36.6706 2.684 37.1506 3.488C37.6306 4.292 37.8706 5.234 37.8706 6.314C37.8706 7.406 37.6306 8.36 37.1506 9.176C36.6706 9.98 35.9746 10.604 35.0626 11.048C34.1626 11.492 33.0826 11.714 31.8226 11.714H29.4646V15.62H26.1886V0.95ZM31.6786 8.816C32.6026 8.816 33.3166 8.6 33.8206 8.168C34.3366 7.736 34.5946 7.118 34.5946 6.314C34.5946 5.51 34.3366 4.898 33.8206 4.478C33.3166 4.058 32.6026 3.848 31.6786 3.848H29.4646V8.816H31.6786ZM44.516 4.82C45.584 4.82 46.544 5.06 47.396 5.54C48.248 6.008 48.914 6.662 49.394 7.502C49.874 8.342 50.114 9.29 50.114 10.346C50.114 11.402 49.874 12.35 49.394 13.19C48.914 14.03 48.248 14.684 47.396 15.152C46.544 15.632 45.584 15.872 44.516 15.872C43.448 15.872 42.488 15.632 41.636 15.152C40.784 14.684 40.118 14.03 39.638 13.19C39.158 12.35 38.918 11.402 38.918 10.346C38.918 9.29 39.158 8.342 39.638 7.502C40.118 6.662 40.784 6.008 41.636 5.54C42.488 5.06 43.448 4.82 44.516 4.82ZM44.516 7.556C43.772 7.556 43.166 7.82 42.698 8.348C42.242 8.864 42.014 9.53 42.014 10.346C42.014 11.162 42.242 11.834 42.698 12.362C43.166 12.878 43.772 13.136 44.516 13.136C45.26 13.136 45.86 12.878 46.316 12.362C46.784 11.834 47.018 11.162 47.018 10.346C47.018 9.53 46.784 8.864 46.316 8.348C45.86 7.82 45.26 7.556 44.516 7.556Z" fill="white"/>
</svg>
