<svg width="22" height="22" viewBox="0 0 22 22" fill="none" xmlns="http://www.w3.org/2000/svg">
<path d="M11 0C13.9174 0 16.7153 1.15893 18.7782 3.22183C20.8411 5.28473 22 8.08262 22 11C22 13.9174 20.8411 16.7153 18.7782 18.7782C16.7153 20.8411 13.9174 22 11 22C8.08262 22 5.28473 20.8411 3.22183 18.7782C1.15893 16.7153 0 13.9174 0 11C0 8.08262 1.15893 5.28473 3.22183 3.22183C5.28473 1.15893 8.08262 0 11 0ZM2.0625 11C2.0625 13.3704 3.00413 15.6437 4.68023 17.3198C6.35634 18.9959 8.62963 19.9375 11 19.9375C13.3704 19.9375 15.6437 18.9959 17.3198 17.3198C18.9959 15.6437 19.9375 13.3704 19.9375 11C19.9375 8.62963 18.9959 6.35634 17.3198 4.68023C15.6437 3.00413 13.3704 2.0625 11 2.0625C8.62963 2.0625 6.35634 3.00413 4.68023 4.68023C3.00413 6.35634 2.0625 8.62963 2.0625 11ZM12.0312 6.53125V9.96875H15.4688C15.7423 9.96875 16.0046 10.0774 16.198 10.2708C16.3913 10.4642 16.5 10.7265 16.5 11C16.5 11.2735 16.3913 11.5358 16.198 11.7292C16.0046 11.9226 15.7423 12.0312 15.4688 12.0312H12.0312V15.4688C12.0312 15.7423 11.9226 16.0046 11.7292 16.198C11.5358 16.3913 11.2735 16.5 11 16.5C10.7265 16.5 10.4642 16.3913 10.2708 16.198C10.0774 16.0046 9.96875 15.7423 9.96875 15.4688V12.0312H6.53125C6.25775 12.0312 5.99544 11.9226 5.80205 11.7292C5.60865 11.5358 5.5 11.2735 5.5 11C5.5 10.7265 5.60865 10.4642 5.80205 10.2708C5.99544 10.0774 6.25775 9.96875 6.53125 9.96875H9.96875V6.53125C9.96875 6.25775 10.0774 5.99544 10.2708 5.80205C10.4642 5.60865 10.7265 5.5 11 5.5C11.2735 5.5 11.5358 5.60865 11.7292 5.80205C11.9226 5.99544 12.0312 6.25775 12.0312 6.53125Z" fill="white"/>
</svg>
