<svg width="22" height="22" viewBox="0 0 22 22" fill="none" xmlns="http://www.w3.org/2000/svg">
<path d="M19.875 21.6558L12.875 14.6458C12.25 15.1465 11.5312 15.5429 10.7188 15.835C9.90625 16.1271 9.04167 16.2731 8.125 16.2731C5.85417 16.2731 3.9325 15.4853 2.36 13.9098C0.7875 12.3342 0.000833333 10.4098 0 8.13656C0 5.86249 0.786667 3.93809 2.36 2.36336C3.93333 0.78862 5.855 0.000834519 8.125 0C10.3958 0 12.3175 0.787786 13.89 2.36336C15.4625 3.93893 16.2492 5.86333 16.25 8.13656C16.25 9.05453 16.1042 9.92034 15.8125 10.734C15.5208 11.5477 15.125 12.2674 14.625 12.8933L21.6562 19.9346C21.8854 20.1641 22 20.4457 22 20.7795C22 21.1133 21.875 21.4054 21.625 21.6558C21.3958 21.8853 21.1042 22 20.75 22C20.3958 22 20.1042 21.8853 19.875 21.6558ZM8.125 13.7696C9.6875 13.7696 11.0158 13.2217 12.11 12.126C13.2042 11.0303 13.7508 9.70045 13.75 8.13656C13.75 6.57183 13.2029 5.24161 12.1088 4.14589C11.0146 3.05017 9.68667 2.50272 8.125 2.50356C6.5625 2.50356 5.23417 3.05142 4.14 4.14714C3.04583 5.24286 2.49917 6.57267 2.5 8.13656C2.5 9.70128 3.04708 11.0315 4.14125 12.1272C5.23542 13.2229 6.56333 13.7704 8.125 13.7696Z" fill="white"/>
</svg>
