<svg width="22" height="21" viewBox="0 0 22 21" fill="none" xmlns="http://www.w3.org/2000/svg">
<path d="M19.963 0H2.03705C1.4968 0 0.97867 0.214006 0.596652 0.594939C0.214633 0.975873 1.77625e-05 1.49253 1.77625e-05 2.03125V18.2812C-0.00160929 18.6681 0.108574 19.0472 0.317384 19.3732C0.526193 19.6992 0.824783 19.9583 1.17742 20.1195C1.44812 20.2459 1.74325 20.3118 2.04215 20.3125C2.52047 20.3113 2.98296 20.1415 3.34789 19.8331L3.36724 19.8169L6.51853 17.0625H19.963C20.5032 17.0625 21.0213 16.8485 21.4034 16.4676C21.7854 16.0866 22 15.57 22 15.0312V2.03125C22 1.49253 21.7854 0.975873 21.4034 0.594939C21.0213 0.214006 20.5032 0 19.963 0ZM19.5556 14.625H6.36575C5.8862 14.625 5.42202 14.7936 5.05492 15.1013L5.03557 15.1176L2.44446 17.3814V2.4375H19.5556V14.625Z" fill="white"/>
</svg>
