<svg width="18" height="17" viewBox="0 0 18 17" fill="none" xmlns="http://www.w3.org/2000/svg">
<path d="M8.99914 0C13.9706 0 18 3.22754 18 7.20999C18 11.1916 13.9706 14.4191 9 14.4191C8.50506 14.4194 8.01062 14.387 7.51971 14.3222L3.74143 16.8618C3.312 17.0952 3.16029 17.0697 3.33686 16.498L4.10143 13.2581C1.63286 11.972 0 9.7434 0 7.20999C0 3.22842 4.02857 0 9 0H8.99914ZM14.0631 7.09988L15.3231 5.84551C15.3958 5.76791 15.4364 5.66435 15.4363 5.55662C15.4362 5.4489 15.3954 5.34543 15.3225 5.26802C15.2496 5.1906 15.1503 5.14528 15.0455 5.14159C14.9408 5.13791 14.8387 5.17616 14.7609 5.24828L13.1083 6.892V5.53368C13.1083 5.42341 13.0657 5.31766 12.9898 5.23968C12.9139 5.16171 12.811 5.11791 12.7037 5.11791C12.5964 5.11791 12.4935 5.16171 12.4176 5.23968C12.3418 5.31766 12.2991 5.42341 12.2991 5.53368V7.78609C12.284 7.85035 12.284 7.91739 12.2991 7.98164V9.24923C12.2991 9.3595 12.3418 9.46525 12.4176 9.54323C12.4935 9.6212 12.5964 9.665 12.7037 9.665C12.811 9.665 12.9139 9.6212 12.9898 9.54323C13.0657 9.46525 13.1083 9.3595 13.1083 9.24923V8.04859L13.4743 7.68479L14.6983 9.47561C14.7288 9.52032 14.7677 9.55841 14.8126 9.5877C14.8574 9.61699 14.9075 9.6369 14.9599 9.64631C15.0122 9.65571 15.0659 9.65443 15.1178 9.64252C15.1697 9.63062 15.2188 9.60832 15.2623 9.57692C15.3058 9.54551 15.3429 9.5056 15.3713 9.45948C15.3998 9.41335 15.4192 9.36191 15.4284 9.30809C15.4375 9.25426 15.4363 9.19912 15.4247 9.14579C15.4131 9.09247 15.3914 9.04201 15.3609 8.9973L14.0631 7.099V7.09988ZM11.5277 8.79469H10.2763V5.54689C10.2715 5.44005 10.2268 5.33921 10.1516 5.26534C10.0763 5.19147 9.97622 5.15025 9.87214 5.15025C9.76807 5.15025 9.66799 5.19147 9.59273 5.26534C9.51746 5.33921 9.47279 5.44005 9.468 5.54689V9.21047C9.468 9.4395 9.648 9.62625 9.87171 9.62625H11.5277C11.635 9.62625 11.7379 9.58244 11.8138 9.50447C11.8897 9.42649 11.9323 9.32074 11.9323 9.21047C11.9323 9.1002 11.8897 8.99445 11.8138 8.91647C11.7379 8.8385 11.635 8.79469 11.5277 8.79469ZM6.50743 7.83366L7.104 6.32912L7.65086 7.83278L6.50743 7.83366ZM8.67 8.26264L8.67171 8.24855C8.67151 8.14381 8.6326 8.04305 8.56286 7.96667L7.66629 5.50021C7.6287 5.38267 7.55711 5.27972 7.46108 5.20511C7.36504 5.1305 7.24914 5.08778 7.12886 5.08267C7.00769 5.08212 6.88924 5.11951 6.78925 5.18984C6.68926 5.26018 6.61249 5.36014 6.56914 5.47642L5.14457 9.06601C5.10399 9.1681 5.10454 9.28258 5.14609 9.38426C5.18765 9.48593 5.2668 9.56649 5.36614 9.60819C5.46549 9.64989 5.57688 9.64933 5.67582 9.60662C5.77476 9.56392 5.85314 9.48257 5.89371 9.38048L6.17829 8.66433H7.95257L8.208 9.36903C8.22542 9.4217 8.25296 9.47025 8.28897 9.51179C8.32498 9.55333 8.36874 9.58702 8.41765 9.61086C8.46657 9.63471 8.51964 9.64822 8.57373 9.6506C8.62781 9.65298 8.68182 9.64418 8.73253 9.62473C8.78325 9.60527 8.82965 9.57555 8.86899 9.53733C8.90833 9.4991 8.9398 9.45315 8.96155 9.4022C8.98329 9.35125 8.99486 9.29634 8.99558 9.24071C8.99629 9.18507 8.98614 9.12986 8.96571 9.07834L8.67 8.26264ZM5.82257 5.5513C5.82257 5.44118 5.78007 5.33556 5.70438 5.25761C5.62869 5.17967 5.52601 5.13576 5.41886 5.13552H2.63743C2.53013 5.13552 2.42723 5.17933 2.35135 5.2573C2.27548 5.33527 2.23286 5.44103 2.23286 5.5513C2.23286 5.66157 2.27548 5.76732 2.35135 5.8453C2.42723 5.92327 2.53013 5.96707 2.63743 5.96707H3.63171V9.25804C3.63171 9.36831 3.67434 9.47406 3.75021 9.55204C3.82608 9.63001 3.92899 9.67381 4.03629 9.67381C4.14358 9.67381 4.24649 9.63001 4.32236 9.55204C4.39823 9.47406 4.44086 9.36831 4.44086 9.25804V5.96707H5.418C5.5253 5.96707 5.6282 5.92327 5.70407 5.8453C5.77995 5.76732 5.82257 5.66157 5.82257 5.5513Z" fill="white"/>
</svg>
