<svg width="20" height="22" viewBox="0 0 20 22" fill="none" xmlns="http://www.w3.org/2000/svg">
<path d="M2.5 19.4857H6.25V11.9429H13.75V19.4857H17.5V8.17143L10 2.51429L2.5 8.17143V19.4857ZM2.5 22C1.8125 22 1.22375 21.7536 0.733752 21.2608C0.243752 20.768 -0.000831211 20.1763 2.12224e-06 19.4857V8.17143C2.12224e-06 7.77333 0.0887519 7.39619 0.266252 7.04C0.443752 6.68381 0.688335 6.39048 1 6.16L8.5 0.502857C8.72917 0.335238 8.96875 0.209524 9.21875 0.125714C9.46875 0.0419046 9.72917 0 10 0C10.2708 0 10.5312 0.0419046 10.7812 0.125714C11.0312 0.209524 11.2708 0.335238 11.5 0.502857L19 6.16C19.3125 6.39048 19.5575 6.68381 19.735 7.04C19.9125 7.39619 20.0008 7.77333 20 8.17143V19.4857C20 20.1771 19.755 20.7693 19.265 21.2621C18.775 21.7549 18.1867 22.0008 17.5 22H11.25V14.4571H8.75V22H2.5Z" fill="white"/>
</svg>
