<svg width="24" height="22" viewBox="0 0 24 22" fill="none" xmlns="http://www.w3.org/2000/svg">
<path d="M18 0C19.5913 0 21.1174 0.643847 22.2426 1.7899C23.3679 2.93596 24 4.49034 24 6.11111V15.8889C24 17.5097 23.3679 19.064 22.2426 20.2101C21.1174 21.3562 19.5913 22 18 22H1.2C0.88174 22 0.576515 21.8712 0.351472 21.642C0.126428 21.4128 0 21.1019 0 20.7778V6.11111C0 4.49034 0.632141 2.93596 1.75736 1.7899C2.88258 0.643847 4.4087 0 6 0H18ZM18 2.44444H6C5.04522 2.44444 4.12955 2.83075 3.45442 3.51839C2.77928 4.20602 2.4 5.13865 2.4 6.11111V19.5556H18C18.9548 19.5556 19.8705 19.1692 20.5456 18.4816C21.2207 17.794 21.6 16.8613 21.6 15.8889V6.11111C21.6 5.13865 21.2207 4.20602 20.5456 3.51839C19.8705 2.83075 18.9548 2.44444 18 2.44444ZM8.4 8.55556C8.71826 8.55556 9.02348 8.68433 9.24853 8.91354C9.47357 9.14275 9.6 9.45362 9.6 9.77778V12.2222C9.6 12.5464 9.47357 12.8573 9.24853 13.0865C9.02348 13.3157 8.71826 13.4444 8.4 13.4444C8.08174 13.4444 7.77652 13.3157 7.55147 13.0865C7.32643 12.8573 7.2 12.5464 7.2 12.2222V9.77778C7.2 9.45362 7.32643 9.14275 7.55147 8.91354C7.77652 8.68433 8.08174 8.55556 8.4 8.55556ZM15.6 8.55556C15.8939 8.55559 16.1776 8.6655 16.3972 8.86443C16.6169 9.06336 16.7572 9.33747 16.7916 9.63478L16.8 9.77778V12.2222C16.7997 12.5337 16.6825 12.8334 16.4726 13.0599C16.2626 13.2864 15.9757 13.4227 15.6703 13.441C15.365 13.4592 15.0643 13.3581 14.8298 13.1581C14.5953 12.9582 14.4445 12.6746 14.4084 12.3652L14.4 12.2222V9.77778C14.4 9.45362 14.5264 9.14275 14.7515 8.91354C14.9765 8.68433 15.2817 8.55556 15.6 8.55556Z" fill="white"/>
</svg>
