<svg width="16" height="16" viewBox="0 0 16 16" fill="none" xmlns="http://www.w3.org/2000/svg">
<path d="M6.77958 9.22042C7.13445 9.55799 7.13445 10.1119 6.77958 10.4495C6.44201 10.7871 5.88806 10.7871 5.5505 10.4495C4.73981 9.63759 4.28447 8.53714 4.28447 7.38979C4.28447 6.24244 4.73981 5.14198 5.5505 4.33007L8.61454 1.26603C9.42645 0.455339 10.5269 0 11.6743 0C12.8216 0 13.9221 0.455339 14.734 1.26603C15.5447 2.07794 16 3.17839 16 4.32575C16 5.4731 15.5447 6.57355 14.734 7.38546L13.4443 8.67513C13.453 7.96538 13.3404 7.25563 13.0981 6.5805L13.5049 6.16504C13.7475 5.92501 13.9402 5.63924 14.0716 5.32427C14.2031 5.0093 14.2708 4.67138 14.2708 4.33007C14.2708 3.98877 14.2031 3.65085 14.0716 3.33588C13.9402 3.02091 13.7475 2.73514 13.5049 2.49511C13.2649 2.25246 12.9791 2.05983 12.6641 1.92837C12.3492 1.7969 12.0112 1.72921 11.6699 1.72921C11.3286 1.72921 10.9907 1.7969 10.6757 1.92837C10.3608 2.05983 10.075 2.25246 9.83496 2.49511L6.77958 5.5505C6.53693 5.79052 6.3443 6.07629 6.21283 6.39127C6.08137 6.70624 6.01367 7.04415 6.01367 7.38546C6.01367 7.72677 6.08137 8.06469 6.21283 8.37966C6.3443 8.69463 6.53693 8.9804 6.77958 9.22042ZM9.22042 5.5505C9.55799 5.21293 10.1119 5.21293 10.4495 5.5505C11.2602 6.36241 11.7155 7.46286 11.7155 8.61021C11.7155 9.75756 11.2602 10.858 10.4495 11.6699L7.38546 14.734C6.57355 15.5447 5.4731 16 4.32575 16C3.17839 16 2.07794 15.5447 1.26603 14.734C0.455339 13.9221 0 12.8216 0 11.6743C0 10.5269 0.455339 9.42645 1.26603 8.61454L2.5557 7.32487C2.54704 8.03462 2.65956 8.74437 2.90192 9.42815L2.49511 9.83496C2.25246 10.075 2.05983 10.3608 1.92837 10.6757C1.7969 10.9907 1.72921 11.3286 1.72921 11.6699C1.72921 12.0112 1.7969 12.3492 1.92837 12.6641C2.05983 12.9791 2.25246 13.2649 2.49511 13.5049C2.73514 13.7475 3.02091 13.9402 3.33588 14.0716C3.65085 14.2031 3.98877 14.2708 4.33007 14.2708C4.67138 14.2708 5.0093 14.2031 5.32427 14.0716C5.63924 13.9402 5.92501 13.7475 6.16504 13.5049L9.22042 10.4495C9.46307 10.2095 9.6557 9.92371 9.78717 9.60874C9.91864 9.29377 9.98633 8.95585 9.98633 8.61454C9.98633 8.27323 9.91864 7.93532 9.78717 7.62035C9.6557 7.30537 9.46307 7.0196 9.22042 6.77958C9.13636 6.70081 9.06935 6.60562 9.02354 6.49992C8.97773 6.39422 8.9541 6.28024 8.9541 6.16504C8.9541 6.04983 8.97773 5.93586 9.02354 5.83015C9.06935 5.72445 9.13636 5.62927 9.22042 5.5505Z" fill="white"/>
</svg>
