<svg width="16" height="15" viewBox="0 0 16 15" fill="none" xmlns="http://www.w3.org/2000/svg">
<path d="M8 11.6C9 11.6 9.85013 11.2499 10.5504 10.5496C11.2507 9.84933 11.6005 8.99946 11.6 8C11.6 7 11.2499 6.14987 10.5496 5.4496C9.84933 4.74933 8.99947 4.39947 8 4.4C7 4.4 6.14987 4.75013 5.4496 5.4504C4.74933 6.15067 4.39947 7.00053 4.4 8C4.4 9 4.75013 9.85013 5.4504 10.5504C6.15067 11.2507 7.00053 11.6005 8 11.6ZM8 10C7.44 10 6.96667 9.80666 6.58 9.42C6.19333 9.03333 6 8.56 6 8C6 7.44 6.19333 6.96667 6.58 6.58C6.96667 6.19333 7.44 6 8 6C8.56 6 9.03333 6.19333 9.42 6.58C9.80667 6.96667 10 7.44 10 8C10 8.56 9.80667 9.03333 9.42 9.42C9.03333 9.80666 8.56 10 8 10ZM1.6 14.4C1.16 14.4 0.783201 14.2432 0.469601 13.9296C0.156001 13.616 -0.000531975 13.2395 1.35823e-06 12.8V3.2C1.35823e-06 2.76 0.156801 2.3832 0.470401 2.0696C0.784001 1.756 1.16053 1.59947 1.6 1.6H4.12L5.6 0H10.4L11.88 1.6H14.4C14.84 1.6 15.2168 1.7568 15.5304 2.0704C15.844 2.384 16.0005 2.76053 16 3.2V12.8C16 13.24 15.8432 13.6168 15.5296 13.9304C15.216 14.244 14.8395 14.4005 14.4 14.4H1.6ZM14.4 12.8V3.2H11.16L9.7 1.6H6.3L4.84 3.2H1.6V12.8H14.4Z" fill="white"/>
</svg>
