<svg width="18" height="18" viewBox="0 0 18 18" fill="none" xmlns="http://www.w3.org/2000/svg">
<path d="M11.4008 8.2C12.2844 8.2 13.0008 7.48366 13.0008 6.6C13.0008 5.71634 12.2844 5 11.4008 5C10.5171 5 9.80078 5.71634 9.80078 6.6C9.80078 7.48366 10.5171 8.2 11.4008 8.2Z" stroke="white" stroke-width="1.5"/>
<path d="M15.401 13.4799L13.6226 11.8799C13.2188 11.5164 12.7036 11.3006 12.1612 11.2679C11.6189 11.2352 11.0815 11.3875 10.637 11.6999L10.3978 11.8679C10.0896 12.0844 9.715 12.1853 9.3398 12.1529C8.9646 12.1204 8.61289 11.9566 8.34656 11.6903L4.91456 8.25831C4.58445 7.9285 4.14136 7.73643 3.67498 7.72098C3.2086 7.70553 2.75377 7.86786 2.40256 8.17511L1.22656 9.20391" stroke="white" stroke-width="1.5" stroke-linecap="round"/>
<path d="M9 17C13.4183 17 17 13.4183 17 9C17 4.58172 13.4183 1 9 1C4.58172 1 1 4.58172 1 9C1 13.4183 4.58172 17 9 17Z" stroke="white" stroke-width="1.5"/>
</svg>
