<svg width="20" height="40" viewBox="0 0 20 40" fill="none" xmlns="http://www.w3.org/2000/svg">
<path d="M17.1667 38.2218L17.1653 38.2201L1.63677 20.4909C1.63667 20.4908 1.63657 20.4907 1.63647 20.4906C1.57696 20.4224 1.55531 20.3737 1.54527 20.3417C1.51826 20.2558 1.4994 20.1471 1.50001 20.0065H1.50003V20C1.50003 19.8575 1.51939 19.7465 1.54711 19.6583C1.55783 19.6242 1.58017 19.5747 1.63882 19.5067C1.63923 19.5063 1.63963 19.5058 1.64004 19.5053L17.1667 1.72544C17.3164 1.55403 17.4444 1.5 17.6498 1.5C17.8216 1.5 17.9753 1.54509 18.1789 1.77821C18.4 2.03133 18.5 2.29602 18.5 2.63852C18.5 2.98102 18.4 3.24572 18.1789 3.49884L4.63056 19.0133L3.76894 20L4.63056 20.9867L18.1789 36.5012C18.345 36.6913 18.4539 36.9365 18.4539 37.3361C18.4539 37.7073 18.3472 37.9769 18.1341 38.2203L18.1328 38.2218C17.9125 38.4742 17.7679 38.5 17.6498 38.5C17.5316 38.5 17.3871 38.4742 17.1667 38.2218Z" fill="#B259F8" stroke="#B259F8" stroke-width="3"/>
</svg>
