<svg width="8" height="12" viewBox="0 0 8 12" fill="none" xmlns="http://www.w3.org/2000/svg">
<path d="M2.66667 12C1.93333 12 1.30556 11.7389 0.783333 11.2167C0.261111 10.6944 0 10.0667 0 9.33333C0 8.6 0.261111 7.97222 0.783333 7.45C1.30556 6.92778 1.93333 6.66667 2.66667 6.66667C2.92222 6.66667 3.15844 6.69733 3.37533 6.75867C3.59222 6.82 3.80044 6.91156 4 7.03333V1.33333C4 0.966668 4.13067 0.652668 4.392 0.391334C4.65333 0.130001 4.96711 -0.000443313 5.33333 1.13186e-06H6.66667C7.03333 1.13186e-06 7.34733 0.130668 7.60867 0.392001C7.87 0.653334 8.00044 0.967112 8 1.33333C8 1.7 7.86933 2.014 7.608 2.27533C7.34667 2.53667 7.03289 2.66711 6.66667 2.66667H5.33333V9.33333C5.33333 10.0667 5.07222 10.6944 4.55 11.2167C4.02778 11.7389 3.4 12 2.66667 12Z" fill="white"/>
</svg>
