<svg width="18" height="24" viewBox="0 0 18 24" fill="none" xmlns="http://www.w3.org/2000/svg">
<path d="M6 24C4.35 24 2.9375 23.4778 1.7625 22.4333C0.5875 21.3889 0 20.1333 0 18.6667C0 17.2 0.5875 15.9444 1.7625 14.9C2.9375 13.8556 4.35 13.3333 6 13.3333C6.575 13.3333 7.1065 13.3947 7.5945 13.5173C8.0825 13.64 8.551 13.8231 9 14.0667V2.66667C9 1.93334 9.294 1.30534 9.882 0.782669C10.47 0.260002 11.176 -0.000886625 12 2.26372e-06H15C15.825 2.26372e-06 16.5315 0.261336 17.1195 0.784002C17.7075 1.30667 18.001 1.93422 18 2.66667C18 3.4 17.706 4.028 17.118 4.55067C16.53 5.07333 15.824 5.33422 15 5.33333H12V18.6667C12 20.1333 11.4125 21.3889 10.2375 22.4333C9.0625 23.4778 7.65 24 6 24Z" fill="white"/>
</svg>
