<svg width="21" height="20" viewBox="0 0 21 20" fill="none" xmlns="http://www.w3.org/2000/svg">
<path d="M13 12C14.3261 12 15.5979 12.5268 16.5355 13.4645C17.4732 14.4021 18 15.6739 18 17V18C18 18.5304 17.7893 19.0391 17.4142 19.4142C17.0391 19.7893 16.5304 20 16 20H2C1.46957 20 0.960859 19.7893 0.585786 19.4142C0.210714 19.0391 0 18.5304 0 18V17C0 15.6739 0.526784 14.4021 1.46447 13.4645C2.40215 12.5268 3.67392 12 5 12H13ZM18.414 7.081C18.5935 6.89975 18.8356 6.79397 19.0905 6.78532C19.3455 6.77667 19.5942 6.8658 19.7856 7.03447C19.977 7.20313 20.0967 7.43858 20.1202 7.69262C20.1437 7.94666 20.0692 8.20008 19.912 8.401L19.828 8.496L17 11.324C16.8278 11.4962 16.5987 11.5996 16.3557 11.6149C16.1127 11.6302 15.8724 11.5563 15.68 11.407L15.586 11.324L14.172 9.91C13.9907 9.73046 13.885 9.48843 13.8763 9.23345C13.8677 8.97847 13.9568 8.72983 14.1255 8.53842C14.2941 8.34701 14.5296 8.2273 14.7836 8.2038C15.0377 8.18029 15.2911 8.25478 15.492 8.412L15.586 8.496L16.293 9.203L18.414 7.081ZM9 0C10.3261 0 11.5979 0.526784 12.5355 1.46447C13.4732 2.40215 14 3.67392 14 5C14 6.32608 13.4732 7.59785 12.5355 8.53553C11.5979 9.47322 10.3261 10 9 10C7.67392 10 6.40215 9.47322 5.46447 8.53553C4.52678 7.59785 4 6.32608 4 5C4 3.67392 4.52678 2.40215 5.46447 1.46447C6.40215 0.526784 7.67392 0 9 0Z" fill="black"/>
</svg>
