<svg width="14" height="13" viewBox="0 0 14 13" fill="none" xmlns="http://www.w3.org/2000/svg">
<path d="M13.9957 0.908366C13.9957 0.785792 13.9659 0.665408 13.9095 0.559442C13.8531 0.453477 13.7719 0.365705 13.6744 0.305044C13.5768 0.244382 13.4662 0.212992 13.354 0.214063C13.2417 0.215133 13.1317 0.248626 13.0351 0.311138C12.6625 0.553371 12.2614 0.738885 11.8429 0.862532C11.2455 0.302995 10.4835 -0.00316272 9.69636 2.46384e-05C8.83289 0.00115418 8.00361 0.368522 7.38362 1.02456C6.76363 1.6806 6.40146 2.57396 6.37357 3.51603C4.67101 3.21972 3.12792 2.24972 2.0386 0.791003C1.97296 0.704177 1.88918 0.635833 1.7943 0.591722C1.69942 0.547611 1.59622 0.529026 1.49339 0.537529C1.39058 0.546817 1.29139 0.583284 1.20438 0.643779C1.11737 0.704275 1.04516 0.78698 0.993984 0.884754C0.731571 1.38469 0.580871 1.94513 0.554121 2.52057C0.52737 3.09601 0.625324 3.67023 0.840027 4.19659L0.838755 4.19728C0.742045 4.26215 0.662232 4.35306 0.606976 4.46129C0.551719 4.56952 0.522873 4.69144 0.523207 4.81534C0.522186 4.91728 0.527927 5.01917 0.540384 5.12021C0.605353 5.99386 0.960033 6.81164 1.53792 7.42022C1.49871 7.50183 1.4748 7.59116 1.46759 7.68297C1.46038 7.77479 1.47001 7.86725 1.49593 7.95495C1.74785 8.81201 2.2837 9.53561 2.9986 9.98413C2.27219 10.2907 1.48785 10.3975 0.714699 10.2952C0.571666 10.2758 0.426833 10.31 0.303919 10.3922C0.181005 10.4744 0.0872967 10.5997 0.0381408 10.7476C-0.0110151 10.8955 -0.0127046 11.0572 0.0333492 11.2063C0.0794029 11.3554 0.17047 11.483 0.291636 11.5682C1.6214 12.5029 3.16966 12.9998 4.75129 12.9994C6.54486 13.0215 8.29481 12.3959 9.72896 11.22C11.1631 10.0441 12.2011 8.38375 12.6813 6.4973C12.9059 5.6756 13.0205 4.82281 13.0217 3.96534L13.0211 3.82645C13.3533 3.43533 13.6106 2.97576 13.7779 2.47468C13.9453 1.9736 14.0193 1.44109 13.9957 0.908366ZM11.8925 3.13894C11.7873 3.27451 11.734 3.44909 11.7436 3.62644C11.75 3.74103 11.7493 3.85631 11.7493 3.96534C11.748 4.68977 11.6507 5.41019 11.4605 6.10424C11.0684 7.70955 10.1941 9.12477 8.97766 10.1232C7.7612 11.1217 6.27296 11.6457 4.75129 11.6112C4.20489 11.6113 3.66039 11.5412 3.12902 11.4022C3.80676 11.1636 4.44043 10.7959 5.00068 10.3161C5.10399 10.2274 5.17961 10.106 5.21715 9.96854C5.25469 9.83107 5.25231 9.68428 5.21034 9.54834C5.16836 9.4124 5.08885 9.29399 4.98273 9.20938C4.87661 9.12476 4.74909 9.0781 4.6177 9.07579C4.08885 9.06676 3.58387 8.83397 3.20918 8.42648C3.30419 8.40704 3.39855 8.38273 3.49228 8.35356C3.62972 8.31092 3.75 8.21901 3.83375 8.09266C3.9175 7.9663 3.95985 7.81284 3.95397 7.65701C3.94809 7.50118 3.89433 7.35205 3.80135 7.23363C3.70836 7.11522 3.58157 7.03442 3.44139 7.00425C3.13442 6.93806 2.84558 6.79548 2.59732 6.5876C2.34905 6.37971 2.14806 6.11212 2.00997 5.80563C2.12497 5.82278 2.24069 5.83345 2.35669 5.83757C2.49454 5.84005 2.62953 5.79453 2.74209 5.70763C2.85465 5.62072 2.93892 5.49694 2.9827 5.35424C3.02472 5.21032 3.02261 5.05537 2.97669 4.91289C2.93077 4.7704 2.84354 4.64814 2.72823 4.56465C2.44826 4.36122 2.2189 4.08516 2.06068 3.7612C1.90247 3.43724 1.82034 3.0755 1.82166 2.70838C1.82166 2.66255 1.82293 2.61602 1.82548 2.57088C3.25146 4.02272 5.10114 4.87855 7.04856 4.98757C7.14689 4.99164 7.24478 4.97125 7.33483 4.92794C7.42488 4.88463 7.50472 4.81953 7.56832 4.73756C7.63132 4.6551 7.67595 4.55781 7.69869 4.45334C7.72143 4.34887 7.72166 4.24006 7.69938 4.13548C7.66295 3.96965 7.64438 3.79975 7.64403 3.62922C7.6447 3.03528 7.86115 2.46588 8.24589 2.0459C8.63063 1.62593 9.15226 1.38966 9.69636 1.38893C9.97638 1.38802 10.2535 1.4505 10.5103 1.57242C10.7671 1.69434 10.9979 1.87305 11.1882 2.09726C11.2616 2.18346 11.354 2.24773 11.4565 2.28395C11.5591 2.32017 11.6684 2.32715 11.7741 2.30421C12.0355 2.24876 12.2931 2.17405 12.5452 2.0806C12.3733 2.46451 12.1537 2.82065 11.8925 3.13894Z" fill="black"/>
</svg>
