<svg width="28" height="20" viewBox="0 0 28 20" fill="none" xmlns="http://www.w3.org/2000/svg">
<path d="M21.6364 20C21.2758 20 20.9733 19.88 20.7289 19.64C20.4845 19.4 20.3628 19.1033 20.3636 18.75V15C20.3636 14.6458 20.4858 14.3487 20.7302 14.1087C20.9745 13.8687 21.2766 13.7492 21.6364 13.75V12.5C21.6364 11.8125 21.8858 11.2237 22.3847 10.7337C22.8836 10.2437 23.4827 9.99916 24.1818 10C24.8818 10 25.4813 10.245 25.9802 10.735C26.4791 11.225 26.7281 11.8133 26.7273 12.5V13.75C27.0879 13.75 27.3904 13.87 27.6347 14.11C27.8791 14.35 28.0008 14.6467 28 15V18.75C28 19.1042 27.8778 19.4012 27.6335 19.6412C27.3891 19.8812 27.087 20.0008 26.7273 20H21.6364ZM22.9091 13.75H25.4545V12.5C25.4545 12.1458 25.3324 11.8487 25.088 11.6087C24.8436 11.3687 24.5416 11.2492 24.1818 11.25C23.8212 11.25 23.5187 11.37 23.2744 11.61C23.03 11.85 22.9082 12.1467 22.9091 12.5V13.75ZM2.54546 20C1.84546 20 1.246 19.755 0.747093 19.265C0.248184 18.775 -0.000846324 18.1867 2.16083e-06 17.5V2.5C2.16083e-06 1.8125 0.249457 1.22375 0.748366 0.733752C1.24727 0.243752 1.8463 -0.000831211 2.54546 2.12224e-06H22.9091C23.6091 2.12224e-06 24.2085 0.245002 24.7075 0.735002C25.2064 1.225 25.4554 1.81333 25.4545 2.5V7.5H24.1818C22.4212 7.5 20.9202 8.10958 19.6789 9.32875C18.4376 10.5479 17.8173 12.0217 17.8182 13.75V20H2.54546ZM12.7273 11.0312C12.8333 11.0312 12.9449 11.0154 13.062 10.9837C13.1791 10.9521 13.2902 10.9054 13.3955 10.8437L22.4 5.3125C22.5697 5.20833 22.697 5.07792 22.7818 4.92125C22.8667 4.76458 22.9091 4.59292 22.9091 4.40625C22.9091 3.98958 22.7288 3.67708 22.3682 3.46875C22.0076 3.26042 21.6364 3.27083 21.2545 3.5L12.7273 8.75L4.2 3.5C3.81818 3.27083 3.44697 3.26583 3.08637 3.485C2.72576 3.70417 2.54546 4.01125 2.54546 4.40625C2.54546 4.61458 2.58788 4.79708 2.67273 4.95375C2.75758 5.11042 2.88485 5.23 3.05455 5.3125L12.0591 10.8437C12.1652 10.9062 12.2767 10.9533 12.3938 10.985C12.5109 11.0167 12.6221 11.0321 12.7273 11.0312Z" fill="#C8C8C8"/>
</svg>
