<svg width="18" height="16" viewBox="0 0 18 16" fill="none" xmlns="http://www.w3.org/2000/svg">
<g filter="url(#filter0_di_508_2170)">
<path d="M12.6786 4C11.5723 4 10.6038 4.46261 10 5.24456C9.39625 4.46261 8.42768 4 7.32143 4C6.44084 4.00097 5.59659 4.34157 4.97392 4.94709C4.35125 5.55261 4.00099 6.37359 4 7.22993C4 10.8766 9.56018 13.8284 9.79696 13.9503C9.85937 13.9829 9.92913 14 10 14C10.0709 14 10.1406 13.9829 10.203 13.9503C10.4398 13.8284 16 10.8766 16 7.22993C15.999 6.37359 15.6488 5.55261 15.0261 4.94709C14.4034 4.34157 13.5592 4.00097 12.6786 4ZM10 13.1063C9.02179 12.552 4.85714 10.0269 4.85714 7.22993C4.85799 6.59462 5.1179 5.98556 5.57985 5.53633C6.04181 5.0871 6.66812 4.83436 7.32143 4.83353C8.36339 4.83353 9.23821 5.37324 9.60357 6.24011C9.63586 6.31655 9.69079 6.38193 9.76138 6.42794C9.83196 6.47395 9.91502 6.49852 10 6.49852C10.085 6.49852 10.168 6.47395 10.2386 6.42794C10.3092 6.38193 10.3641 6.31655 10.3964 6.24011C10.7618 5.37168 11.6366 4.83353 12.6786 4.83353C13.3319 4.83436 13.9582 5.0871 14.4201 5.53633C14.8821 5.98556 15.142 6.59462 15.1429 7.22993C15.1429 10.0228 10.9771 12.5515 10 13.1063Z" fill="url(#paint0_linear_508_2170)" shape-rendering="crispEdges"/>
<path d="M12.6786 4C11.5723 4 10.6038 4.46261 10 5.24456C9.39625 4.46261 8.42768 4 7.32143 4C6.44084 4.00097 5.59659 4.34157 4.97392 4.94709C4.35125 5.55261 4.00099 6.37359 4 7.22993C4 10.8766 9.56018 13.8284 9.79696 13.9503C9.85937 13.9829 9.92913 14 10 14C10.0709 14 10.1406 13.9829 10.203 13.9503C10.4398 13.8284 16 10.8766 16 7.22993C15.999 6.37359 15.6488 5.55261 15.0261 4.94709C14.4034 4.34157 13.5592 4.00097 12.6786 4ZM10 13.1063C9.02179 12.552 4.85714 10.0269 4.85714 7.22993C4.85799 6.59462 5.1179 5.98556 5.57985 5.53633C6.04181 5.0871 6.66812 4.83436 7.32143 4.83353C8.36339 4.83353 9.23821 5.37324 9.60357 6.24011C9.63586 6.31655 9.69079 6.38193 9.76138 6.42794C9.83196 6.47395 9.91502 6.49852 10 6.49852C10.085 6.49852 10.168 6.47395 10.2386 6.42794C10.3092 6.38193 10.3641 6.31655 10.3964 6.24011C10.7618 5.37168 11.6366 4.83353 12.6786 4.83353C13.3319 4.83436 13.9582 5.0871 14.4201 5.53633C14.8821 5.98556 15.142 6.59462 15.1429 7.22993C15.1429 10.0228 10.9771 12.5515 10 13.1063Z" stroke="#EFEFEF" stroke-width="0.5" shape-rendering="crispEdges"/>
</g>
<defs>
<filter id="filter0_di_508_2170" x="0.75" y="0.75" width="16.5" height="14.5" filterUnits="userSpaceOnUse" color-interpolation-filters="sRGB">
<feFlood flood-opacity="0" result="BackgroundImageFix"/>
<feColorMatrix in="SourceAlpha" type="matrix" values="0 0 0 0 0 0 0 0 0 0 0 0 0 0 0 0 0 0 127 0" result="hardAlpha"/>
<feOffset dx="-1" dy="-1"/>
<feGaussianBlur stdDeviation="1"/>
<feComposite in2="hardAlpha" operator="out"/>
<feColorMatrix type="matrix" values="0 0 0 0 0 0 0 0 0 0 0 0 0 0 0 0 0 0 0.1 0"/>
<feBlend mode="normal" in2="BackgroundImageFix" result="effect1_dropShadow_508_2170"/>
<feBlend mode="normal" in="SourceGraphic" in2="effect1_dropShadow_508_2170" result="shape"/>
<feColorMatrix in="SourceAlpha" type="matrix" values="0 0 0 0 0 0 0 0 0 0 0 0 0 0 0 0 0 0 127 0" result="hardAlpha"/>
<feOffset dx="-1" dy="-1"/>
<feGaussianBlur stdDeviation="5"/>
<feComposite in2="hardAlpha" operator="arithmetic" k2="-1" k3="1"/>
<feColorMatrix type="matrix" values="0 0 0 0 0.9375 0 0 0 0 0.923177 0 0 0 0 0.923177 0 0 0 1 0"/>
<feBlend mode="normal" in2="shape" result="effect2_innerShadow_508_2170"/>
</filter>
<linearGradient id="paint0_linear_508_2170" x1="4.5" y1="5" x2="14" y2="11.5" gradientUnits="userSpaceOnUse">
<stop stop-color="white"/>
<stop offset="1" stop-color="#D6D6D6" stop-opacity="0"/>
</linearGradient>
</defs>
</svg>
