<svg width="26" height="28" viewBox="0 0 26 28" fill="none" xmlns="http://www.w3.org/2000/svg">
<path d="M18.2333 20.1337C17.9621 19.8051 17.8264 19.4325 17.8264 19.016C17.8264 18.5994 17.9621 18.2516 18.2333 17.9725L20.9701 15.1667H10.3556C9.93646 15.1667 9.58486 15.0211 9.30082 14.7299C9.01678 14.4387 8.87525 14.0787 8.87624 13.65C8.87624 13.2203 9.01826 12.8598 9.3023 12.5686C9.58634 12.2774 9.93744 12.1323 10.3556 12.1333H20.9701L18.2333 9.3275C17.9374 9.02417 17.7895 8.66371 17.7895 8.24612C17.7895 7.82853 17.9374 7.46857 18.2333 7.16625C18.5045 6.86292 18.8438 6.71125 19.2511 6.71125C19.6584 6.71125 19.9972 6.85028 20.2674 7.12833L25.5931 12.5883C25.7411 12.74 25.8461 12.9043 25.9083 13.0812C25.9704 13.2582 26.001 13.4478 26 13.65C26 13.8522 25.9694 14.0418 25.9083 14.2187C25.8471 14.3957 25.7421 14.56 25.5931 14.7117L20.2674 20.1717C19.9469 20.5003 19.5953 20.6459 19.2126 20.6085C18.83 20.5711 18.5035 20.4128 18.2333 20.1337ZM2.95875 27.3C2.14509 27.3 1.44831 27.0027 0.868394 26.4082C0.28848 25.8137 -0.000983737 25.0998 2.51167e-06 24.2667V3.03333C2.51167e-06 2.19917 0.28996 1.48482 0.869874 0.890285C1.44979 0.295752 2.14608 -0.00100854 2.95875 2.57499e-06H11.835C12.2541 2.57499e-06 12.6057 0.145603 12.8898 0.436803C13.1738 0.728002 13.3153 1.08796 13.3144 1.51667C13.3144 1.94639 13.1723 2.30685 12.8883 2.59805C12.6043 2.88925 12.2532 3.03435 11.835 3.03333H2.95875V24.2667H11.835C12.2541 24.2667 12.6057 24.4123 12.8898 24.7035C13.1738 24.9947 13.3153 25.3546 13.3144 25.7833C13.3144 26.2131 13.1723 26.5735 12.8883 26.8647C12.6043 27.1559 12.2532 27.301 11.835 27.3H2.95875Z" fill="#C8C8C8"/>
</svg>
