<svg width="15" height="15" viewBox="0 0 15 15" fill="none" xmlns="http://www.w3.org/2000/svg">
<g filter="url(#filter0_i_546_550)">
<path d="M7.49693 4.14453C6.60782 4.14453 5.75512 4.49773 5.12643 5.12643C4.49773 5.75512 4.14453 6.60782 4.14453 7.49693C4.14453 8.38604 4.49773 9.23874 5.12643 9.86744C5.75512 10.4961 6.60782 10.8493 7.49693 10.8493C8.38604 10.8493 9.23874 10.4961 9.86744 9.86744C10.4961 9.23874 10.8493 8.38604 10.8493 7.49693C10.8493 6.60782 10.4961 5.75512 9.86744 5.12643C9.23874 4.49773 8.38604 4.14453 7.49693 4.14453ZM7.49693 9.67411C6.91932 9.67411 6.36536 9.44465 5.95692 9.03621C5.54849 8.62778 5.31903 8.07382 5.31903 7.49621C5.31903 6.91859 5.54849 6.36463 5.95692 5.9562C6.36536 5.54776 6.91932 5.31831 7.49693 5.31831C8.07455 5.31831 8.6285 5.54776 9.03694 5.9562C9.44537 6.36463 9.67483 6.91859 9.67483 7.49621C9.67483 8.07382 9.44537 8.62778 9.03694 9.03621C8.6285 9.44465 8.07455 9.67411 7.49693 9.67411Z" fill="black"/>
</g>
<g filter="url(#filter1_i_546_550)">
<path d="M10.9827 4.80333C11.4144 4.80333 11.7643 4.45342 11.7643 4.02178C11.7643 3.59015 11.4144 3.24023 10.9827 3.24023C10.5511 3.24023 10.2012 3.59015 10.2012 4.02178C10.2012 4.45342 10.5511 4.80333 10.9827 4.80333Z" fill="black"/>
</g>
<g filter="url(#filter2_i_546_550)">
<path d="M13.6846 3.22646C13.5167 2.79304 13.2603 2.39944 12.9316 2.07085C12.6028 1.74226 12.2091 1.48593 11.7757 1.31826C11.2684 1.12784 10.7325 1.02488 10.1908 1.01376C9.49263 0.983309 9.27151 0.974609 7.50106 0.974609C5.73061 0.974609 5.50368 0.974609 4.81131 1.01376C4.27002 1.02431 3.73451 1.1273 3.22791 1.31826C2.79431 1.48574 2.40051 1.742 2.07178 2.07061C1.74304 2.39922 1.48663 2.79293 1.31898 3.22646C1.12853 3.73368 1.0258 4.26962 1.01521 4.81131C0.984034 5.50876 0.974609 5.72988 0.974609 7.50106C0.974609 9.27151 0.974609 9.49698 1.01521 10.1908C1.02608 10.7331 1.12831 11.2682 1.31898 11.7764C1.4871 12.2098 1.74376 12.6033 2.07258 12.9319C2.40139 13.2604 2.79513 13.5168 3.22863 13.6846C3.73427 13.8827 4.27 13.993 4.81276 14.0108C5.51093 14.0413 5.73206 14.0507 7.50251 14.0507C9.27296 14.0507 9.49988 14.0507 10.1923 14.0108C10.7339 13.9998 11.2698 13.8971 11.7771 13.7071C12.2105 13.539 12.6041 13.2824 12.9327 12.9538C13.2614 12.6251 13.518 12.2315 13.686 11.7981C13.8767 11.2906 13.9789 10.7556 13.9898 10.2133C14.021 9.51583 14.0304 9.29471 14.0304 7.52353C14.0304 5.75236 14.0304 5.52761 13.9898 4.83378C13.9814 4.28443 13.8781 3.74066 13.6846 3.22646ZM12.8015 10.1372C12.7969 10.555 12.7206 10.9689 12.5761 11.361C12.4672 11.6429 12.3005 11.8989 12.0867 12.1126C11.873 12.3262 11.6169 12.4927 11.3349 12.6014C10.9471 12.7453 10.5376 12.8216 10.1241 12.8269C9.43536 12.8588 9.24106 12.8668 7.47496 12.8668C5.70741 12.8668 5.52688 12.8668 4.82508 12.8269C4.41178 12.8219 4.00245 12.7456 3.61506 12.6014C3.33208 12.4934 3.07494 12.3272 2.86025 12.1135C2.64557 11.8998 2.47814 11.6434 2.36878 11.361C2.22628 10.9731 2.15006 10.5641 2.14331 10.1509C2.11213 9.46218 2.10488 9.26788 2.10488 7.50178C2.10488 5.73496 2.10488 5.55443 2.14331 4.85191C2.148 4.43433 2.22426 4.02064 2.36878 3.62883C2.58991 3.05681 3.04303 2.60658 3.61506 2.38763C4.00264 2.24419 4.41185 2.16793 4.82508 2.16216C5.51456 2.13098 5.70813 2.12228 7.47496 2.12228C9.24179 2.12228 9.42303 2.12228 10.1241 2.16216C10.5377 2.16713 10.9472 2.24341 11.3349 2.38763C11.6168 2.49658 11.8729 2.66328 12.0867 2.87703C12.3004 3.09078 12.4671 3.34686 12.5761 3.62883C12.7186 4.01667 12.7948 4.42573 12.8015 4.83886C12.8327 5.52833 12.8407 5.72191 12.8407 7.48873C12.8407 9.25483 12.8407 9.44478 12.8095 10.1379H12.8015V10.1372Z" fill="black"/>
</g>
<defs>
<filter id="filter0_i_546_550" x="3.14453" y="3.14453" width="7.70508" height="7.70508" filterUnits="userSpaceOnUse" color-interpolation-filters="sRGB">
<feFlood flood-opacity="0" result="BackgroundImageFix"/>
<feBlend mode="normal" in="SourceGraphic" in2="BackgroundImageFix" result="shape"/>
<feColorMatrix in="SourceAlpha" type="matrix" values="0 0 0 0 0 0 0 0 0 0 0 0 0 0 0 0 0 0 127 0" result="hardAlpha"/>
<feOffset dx="-1" dy="-1"/>
<feGaussianBlur stdDeviation="1"/>
<feComposite in2="hardAlpha" operator="arithmetic" k2="-1" k3="1"/>
<feColorMatrix type="matrix" values="0 0 0 0 1 0 0 0 0 1 0 0 0 0 1 0 0 0 0.5 0"/>
<feBlend mode="normal" in2="shape" result="effect1_innerShadow_546_550"/>
</filter>
<filter id="filter1_i_546_550" x="9.20117" y="2.24023" width="2.5625" height="2.56348" filterUnits="userSpaceOnUse" color-interpolation-filters="sRGB">
<feFlood flood-opacity="0" result="BackgroundImageFix"/>
<feBlend mode="normal" in="SourceGraphic" in2="BackgroundImageFix" result="shape"/>
<feColorMatrix in="SourceAlpha" type="matrix" values="0 0 0 0 0 0 0 0 0 0 0 0 0 0 0 0 0 0 127 0" result="hardAlpha"/>
<feOffset dx="-1" dy="-1"/>
<feGaussianBlur stdDeviation="1"/>
<feComposite in2="hardAlpha" operator="arithmetic" k2="-1" k3="1"/>
<feColorMatrix type="matrix" values="0 0 0 0 0.570833 0 0 0 0 0.570833 0 0 0 0 0.570833 0 0 0 0.5 0"/>
<feBlend mode="normal" in2="shape" result="effect1_innerShadow_546_550"/>
</filter>
<filter id="filter2_i_546_550" x="-0.0253906" y="-0.0253906" width="14.0566" height="14.0762" filterUnits="userSpaceOnUse" color-interpolation-filters="sRGB">
<feFlood flood-opacity="0" result="BackgroundImageFix"/>
<feBlend mode="normal" in="SourceGraphic" in2="BackgroundImageFix" result="shape"/>
<feColorMatrix in="SourceAlpha" type="matrix" values="0 0 0 0 0 0 0 0 0 0 0 0 0 0 0 0 0 0 127 0" result="hardAlpha"/>
<feOffset dx="-1" dy="-1"/>
<feGaussianBlur stdDeviation="1"/>
<feComposite in2="hardAlpha" operator="arithmetic" k2="-1" k3="1"/>
<feColorMatrix type="matrix" values="0 0 0 0 1 0 0 0 0 1 0 0 0 0 1 0 0 0 0.5 0"/>
<feBlend mode="normal" in2="shape" result="effect1_innerShadow_546_550"/>
</filter>
</defs>
</svg>
