<svg width="29" height="29" viewBox="0 0 29 29" fill="none" xmlns="http://www.w3.org/2000/svg">
<mask id="mask0_341_881" style="mask-type:luminance" maskUnits="userSpaceOnUse" x="0" y="0" width="29" height="29">
<path d="M22.4288 8.98187C23.2258 10.1236 23.7651 11.4248 24.0094 12.7956H27V16.2044H24.0094C23.7651 17.5752 23.2258 18.8764 22.4288 20.0181L24.5444 22.1338L22.1338 24.5444L20.0181 22.4288C18.8764 23.2258 17.5752 23.7651 16.2044 24.0094V27H12.7956V24.0094C11.4248 23.7651 10.1236 23.2258 8.98187 22.4288L6.86625 24.5444L4.45563 22.1338L6.57125 20.0181C5.77421 18.8764 5.23488 17.5752 4.99062 16.2044H2V12.7956H4.99062C5.23488 11.4248 5.77421 10.1236 6.57125 8.98187L4.45563 6.86625L6.86625 4.45563L8.98187 6.57125C10.1236 5.77421 11.4248 5.23488 12.7956 4.99062V2H16.2044V4.99062C17.5752 5.23488 18.8764 5.77421 20.0181 6.57125L22.1338 4.45563L24.5444 6.86625L22.4288 8.98187Z" fill="white" stroke="white" stroke-width="4" stroke-linejoin="round"/>
<path d="M14.5 17.625C15.3288 17.625 16.1237 17.2958 16.7097 16.7097C17.2958 16.1237 17.625 15.3288 17.625 14.5C17.625 13.6712 17.2958 12.8763 16.7097 12.2903C16.1237 11.7042 15.3288 11.375 14.5 11.375C13.6712 11.375 12.8763 11.7042 12.2903 12.2903C11.7042 12.8763 11.375 13.6712 11.375 14.5C11.375 15.3288 11.7042 16.1237 12.2903 16.7097C12.8763 17.2958 13.6712 17.625 14.5 17.625Z" fill="black" stroke="black" stroke-width="4" stroke-linejoin="round"/>
</mask>
<g mask="url(#mask0_341_881)">
<path d="M-0.5 -0.5H29.5V29.5H-0.5V-0.5Z" fill="#B259F8"/>
</g>
</svg>
