<svg width="12" height="14" viewBox="0 0 12 14" fill="none" xmlns="http://www.w3.org/2000/svg">
<path d="M6.25 8.2825V9.58875C5.68433 9.38875 5.07892 9.32741 4.48463 9.40987C3.89033 9.49233 3.3245 9.71618 2.83464 10.0626C2.34479 10.4091 1.94522 10.868 1.66948 11.4009C1.39374 11.9338 1.24989 12.525 1.25 13.125H3.59507e-07C-0.000289051 12.3618 0.174161 11.6086 0.509981 10.9232C0.845801 10.2378 1.33408 9.63834 1.93739 9.17084C2.5407 8.70333 3.24304 8.38015 3.99057 8.22606C4.7381 8.07197 5.51099 8.09169 6.25 8.2825ZM5 7.5C2.92813 7.5 1.25 5.82188 1.25 3.75C1.25 1.67812 2.92813 0 5 0C7.07188 0 8.75 1.67812 8.75 3.75C8.75 5.82188 7.07188 7.5 5 7.5ZM5 6.25C6.38125 6.25 7.5 5.13125 7.5 3.75C7.5 2.36875 6.38125 1.25 5 1.25C3.61875 1.25 2.5 2.36875 2.5 3.75C2.5 5.13125 3.61875 6.25 5 6.25ZM9.375 10.3663L10.7006 9.04063L11.585 9.92437L10.2581 11.25L11.5838 12.5756L10.7 13.46L9.375 12.1331L8.04938 13.4588L7.165 12.575L8.49188 11.25L7.16625 9.92437L8.05 9.04L9.375 10.3663Z" fill="black"/>
</svg>
