<svg width="22" height="26" viewBox="0 0 22 26" fill="none" xmlns="http://www.w3.org/2000/svg">
<path d="M20.009 12.969C19.72 12.322 19.3906 11.589 19.0708 10.684C18.2314 8.315 20.9132 5.731 20.9387 5.707L19.4363 4.293C19.2876 4.433 15.7994 7.771 17.0542 11.316C17.4006 12.294 17.7469 13.066 18.0508 13.746C18.7599 15.0646 19.128 16.5222 19.125 18C19.0005 19.1912 18.5146 20.3235 17.7252 21.262C16.9359 22.2005 15.8764 22.9055 14.6731 23.293C15.0533 21.8907 15.0476 20.4203 14.6567 19.0207C14.2657 17.621 13.5024 16.3381 12.4387 15.293L11.3294 14.249L10.7111 15.606C8.76031 19.89 6.43875 21.76 5.07344 22.54C4.23529 22.0569 3.53096 21.3934 3.01838 20.6041C2.5058 19.8149 2.19961 18.9224 2.125 18C2.19829 16.7412 2.53367 15.5081 3.11206 14.371C3.79802 13.0002 4.18496 11.5139 4.25 10V8.222C5.17863 8.582 6.375 9.525 6.375 12V14.603L8.22694 12.669C11.5334 9.215 10.8439 5.102 9.50831 2.361C10.5235 2.6795 11.3953 3.31027 11.9833 4.15176C12.5714 4.99325 12.8414 5.99651 12.75 7H14.875C14.875 1.463 10.0098 0 7.4375 0H5.3125L6.5875 1.599C6.73306 1.784 9.62838 5.526 8.02506 9.287C7.66827 8.34188 7.01443 7.52127 6.15038 6.93417C5.28633 6.34707 4.25296 6.02125 3.1875 6H2.125V10C2.05171 11.2588 1.71633 12.4919 1.13794 13.629C0.451983 14.9998 0.0650429 16.4861 0 18C0 21.848 4.06194 26 10.625 26C17.1881 26 21.25 21.848 21.25 18C21.2516 16.2556 20.827 14.5343 20.009 12.969ZM7.26219 23.526C9.22215 21.999 10.8054 20.0888 11.9021 17.928C12.4876 18.8178 12.8202 19.8343 12.8681 20.8799C12.9159 21.9255 12.6773 22.9652 12.1752 23.899C11.6613 23.9641 11.1435 23.9978 10.625 24C9.4847 24.0074 8.35015 23.8475 7.26219 23.526Z" fill="white"/>
</svg>
