<svg width="20" height="26" viewBox="0 0 20 26" fill="none" xmlns="http://www.w3.org/2000/svg">
<path d="M20 25.5556H0V23.1217C0 21.5079 0.65848 19.9603 1.83058 18.8192C3.00269 17.6781 4.5924 17.037 6.25 17.037H13.75C15.4076 17.037 16.9973 17.6781 18.1694 18.8192C19.3415 19.9603 20 21.5079 20 23.1217V25.5556ZM10 14.6032C9.01509 14.6032 8.03982 14.4143 7.12987 14.0474C6.21993 13.6804 5.39314 13.1426 4.6967 12.4646C4.00026 11.7866 3.44781 10.9817 3.0709 10.0958C2.69399 9.20991 2.5 8.26045 2.5 7.30159C2.5 6.34273 2.69399 5.39326 3.0709 4.50739C3.44781 3.62152 4.00026 2.8166 4.6967 2.13859C5.39314 1.46057 6.21993 0.922739 7.12987 0.5558C8.03982 0.188861 9.01509 -1.42881e-08 10 0C11.9891 2.88561e-08 13.8968 0.769272 15.3033 2.13859C16.7098 3.5079 17.5 5.36509 17.5 7.30159C17.5 9.23809 16.7098 11.0953 15.3033 12.4646C13.8968 13.8339 11.9891 14.6032 10 14.6032Z" fill="#C8C8C8"/>
</svg>
