<svg width="22" height="25" viewBox="0 0 22 25" fill="none" xmlns="http://www.w3.org/2000/svg">
<path d="M7.67059 3.35582C7.91365 2.66696 8.3644 2.07045 8.96071 1.64852C9.55701 1.22658 10.2695 1 11 1C11.7305 1 12.443 1.22658 13.0393 1.64852C13.6356 2.07045 14.0864 2.66696 14.3294 3.35582M21 5.70877H1M19.0388 8.64994L18.4976 16.7676C18.2894 19.8899 18.1859 21.4511 17.1682 22.4029C16.1506 23.3558 14.5847 23.3558 11.4553 23.3558H10.5447C7.41529 23.3558 5.84941 23.3558 4.83176 22.4029C3.81412 21.4511 3.70941 19.8899 3.50235 16.7676L2.96118 8.64994M8.05882 11.5911L8.64706 17.4735M13.9412 11.5911L13.3529 17.4735" stroke="white" stroke-width="1.5" stroke-linecap="round"/>
</svg>
