<svg width="20" height="40" viewBox="0 0 20 40" fill="none" xmlns="http://www.w3.org/2000/svg">
<path d="M2.83329 38.2218L2.83475 38.2201L18.3632 20.4909C18.3633 20.4908 18.3634 20.4907 18.3635 20.4906C18.423 20.4224 18.4447 20.3737 18.4547 20.3417C18.4817 20.2558 18.5006 20.1471 18.5 20.0065H18.5V20C18.5 19.8575 18.4806 19.7465 18.4529 19.6583C18.4422 19.6242 18.4198 19.5747 18.3612 19.5067C18.3608 19.5063 18.3604 19.5058 18.36 19.5053L2.83329 1.72544C2.68361 1.55403 2.55564 1.5 2.35023 1.5C2.17838 1.5 2.02465 1.54509 1.82108 1.77821C1.60003 2.03133 1.5 2.29602 1.5 2.63852C1.5 2.98102 1.60003 3.24572 1.82108 3.49884L15.3694 19.0133L16.2311 20L15.3694 20.9867L1.82108 36.5012C1.65503 36.6913 1.54608 36.9365 1.54608 37.3361C1.54608 37.7073 1.65275 37.9769 1.86585 38.2203L1.86716 38.2218C2.08754 38.4742 2.23207 38.5 2.35023 38.5C2.46838 38.5 2.61291 38.4742 2.83329 38.2218Z" fill="#B259F8" stroke="#B259F8" stroke-width="3"/>
</svg>
