<svg width="11" height="19" viewBox="0 0 11 19" fill="none" xmlns="http://www.w3.org/2000/svg">
<mask id="path-1-inside-1_631_546" fill="white">
<path d="M8.70002 18.575L0.275016 10.175C0.175016 10.075 0.104016 9.96667 0.0620156 9.85C0.0200156 9.73333 -0.000651042 9.60833 1.5625e-05 9.475C1.5625e-05 9.34167 0.0210156 9.21667 0.0630156 9.1C0.105016 8.98333 0.175682 8.875 0.275016 8.775L8.70002 0.35C8.93335 0.116667 9.22502 0 9.57502 0C9.92502 0 10.225 0.125 10.475 0.375C10.725 0.625 10.85 0.916667 10.85 1.25C10.85 1.58333 10.725 1.875 10.475 2.125L3.12502 9.475L10.475 16.825C10.7083 17.0583 10.825 17.346 10.825 17.688C10.825 18.03 10.7 18.3257 10.45 18.575C10.2 18.825 9.90835 18.95 9.57502 18.95C9.24168 18.95 8.95002 18.825 8.70002 18.575Z"/>
</mask>
<path d="M8.70002 18.575L0.275016 10.175C0.175016 10.075 0.104016 9.96667 0.0620156 9.85C0.0200156 9.73333 -0.000651042 9.60833 1.5625e-05 9.475C1.5625e-05 9.34167 0.0210156 9.21667 0.0630156 9.1C0.105016 8.98333 0.175682 8.875 0.275016 8.775L8.70002 0.35C8.93335 0.116667 9.22502 0 9.57502 0C9.92502 0 10.225 0.125 10.475 0.375C10.725 0.625 10.85 0.916667 10.85 1.25C10.85 1.58333 10.725 1.875 10.475 2.125L3.12502 9.475L10.475 16.825C10.7083 17.0583 10.825 17.346 10.825 17.688C10.825 18.03 10.7 18.3257 10.45 18.575C10.2 18.825 9.90835 18.95 9.57502 18.95C9.24168 18.95 8.95002 18.825 8.70002 18.575Z" fill="white"/>
<path d="M8.70002 18.575L10.8213 16.4537L10.8182 16.4505L8.70002 18.575ZM0.275016 10.175L-1.84631 12.2963L-1.84315 12.2995L0.275016 10.175ZM1.5625e-05 9.475L2.99998 9.49L3.00002 9.4825V9.475H1.5625e-05ZM0.275016 8.775L-1.84632 6.65367L-1.85339 6.66079L0.275016 8.775ZM8.70002 0.35L10.8213 2.47132L10.8213 2.47132L8.70002 0.35ZM10.475 2.125L8.3537 0.00367969L10.475 2.125ZM3.12502 9.475L1.0037 7.35368L-1.11763 9.475L1.0037 11.5963L3.12502 9.475ZM10.475 16.825L8.3537 18.9463L10.475 16.825ZM10.45 18.575L8.33153 16.4508L8.3287 16.4537L10.45 18.575ZM10.8182 16.4505L2.39318 8.05053L-1.84315 12.2995L6.58185 20.6995L10.8182 16.4505ZM2.39634 8.05368C2.56468 8.22202 2.75738 8.48025 2.88468 8.83384L-2.76065 10.8662C-2.54935 11.4531 -2.21465 11.928 -1.8463 12.2963L2.39634 8.05368ZM2.88468 8.83384C2.97041 9.07197 3.00094 9.29846 2.99998 9.49L-2.99995 9.46C-3.00224 9.9182 -2.93037 10.3947 -2.76065 10.8662L2.88468 8.83384ZM3.00002 9.475C3.00002 9.66191 2.96957 9.88313 2.88568 10.1162L-2.75965 8.08384C-2.92754 8.5502 -2.99998 9.02143 -2.99998 9.475H3.00002ZM2.88568 10.1162C2.76018 10.4648 2.57065 10.7209 2.40342 10.8892L-1.85339 6.66079C-2.21928 7.02914 -2.55014 7.50189 -2.75965 8.08384L2.88568 10.1162ZM2.39634 10.8963L10.8213 2.47132L6.5787 -1.77132L-1.8463 6.65368L2.39634 10.8963ZM10.8213 2.47132C10.6655 2.62718 10.4582 2.77281 10.2079 2.87293C9.96114 2.97165 9.73817 3 9.57502 3V-3C8.48293 -3 7.41142 -2.60404 6.5787 -1.77132L10.8213 2.47132ZM9.57502 3C9.38471 3 9.15165 2.96422 8.90867 2.86298C8.66629 2.76199 8.48127 2.6239 8.3537 2.49632L12.5963 -1.74632C11.7901 -2.55251 10.7297 -3 9.57502 -3V3ZM8.3537 2.49632C8.23959 2.38221 8.10291 2.20586 7.99883 1.96301C7.89327 1.71669 7.85002 1.46874 7.85002 1.25H13.85C13.85 0.0690063 13.3711 -0.971587 12.5963 -1.74632L8.3537 2.49632ZM7.85002 1.25C7.85002 1.03126 7.89327 0.783311 7.99883 0.536992C8.10291 0.29414 8.23959 0.117789 8.3537 0.00367966L12.5963 4.24632C13.3711 3.47159 13.85 2.43099 13.85 1.25H7.85002ZM8.3537 0.00367969L1.0037 7.35368L5.24634 11.5963L12.5963 4.24632L8.3537 0.00367969ZM1.0037 11.5963L8.3537 18.9463L12.5963 14.7037L5.24634 7.35368L1.0037 11.5963ZM8.3537 18.9463C8.20464 18.7973 8.05935 18.5945 7.95745 18.3432C7.85642 18.0941 7.82502 17.8641 7.82502 17.688H13.825C13.825 16.5827 13.4147 15.5221 12.5963 14.7037L8.3537 18.9463ZM7.82502 17.688C7.82502 17.4843 7.86425 17.2436 7.96806 16.998C8.07107 16.7544 8.20937 16.5727 8.33153 16.4509L12.5685 20.6992C13.3624 19.9074 13.825 18.8555 13.825 17.688H7.82502ZM8.3287 16.4537C8.44281 16.3396 8.61916 16.2029 8.86201 16.0988C9.10833 15.9933 9.35628 15.95 9.57502 15.95V21.95C10.756 21.95 11.7966 21.4711 12.5713 20.6963L8.3287 16.4537ZM9.57502 15.95C9.79375 15.95 10.0417 15.9933 10.288 16.0988C10.5309 16.2029 10.7072 16.3396 10.8213 16.4537L6.5787 20.6963C7.35343 21.4711 8.39402 21.95 9.57502 21.95V15.95Z" fill="white" mask="url(#path-1-inside-1_631_546)"/>
</svg>
