<svg width="16" height="13" viewBox="0 0 16 13" fill="none" xmlns="http://www.w3.org/2000/svg">
<path d="M11.2 11.2V12.9231H0V11.2C0 11.2 0 7.75386 5.6 7.75386C11.2 7.75386 11.2 11.2 11.2 11.2ZM8.4 3.01542C8.4 2.41903 8.23578 1.83604 7.92811 1.34017C7.62045 0.844292 7.18315 0.457804 6.67151 0.229577C6.15988 0.0013506 5.59689 -0.0583639 5.05375 0.057985C4.5106 0.174334 4.01169 0.46152 3.6201 0.883228C3.22851 1.30494 2.96184 1.84222 2.8538 2.42715C2.74576 3.01207 2.80121 3.61836 3.01314 4.16935C3.22506 4.72034 3.58395 5.19128 4.0444 5.52261C4.50486 5.85394 5.04621 6.03079 5.6 6.03079C6.34261 6.03079 7.0548 5.7131 7.5799 5.14761C8.105 4.58212 8.4 3.81515 8.4 3.01542ZM11.152 7.75386C11.6438 8.16374 12.0462 8.68469 12.3309 9.28008C12.6157 9.87547 12.7758 10.5308 12.8 11.2V12.9231H16V11.2C16 11.2 16 8.07263 11.152 7.75386ZM10.4 4.52987e-05C9.84935 -0.00325672 9.31081 0.174037 8.856 0.508351C9.34195 1.23957 9.60324 2.11622 9.60324 3.01542C9.60324 3.91462 9.34195 4.79127 8.856 5.52249C9.31081 5.8568 9.84935 6.0341 10.4 6.03079C11.1426 6.03079 11.8548 5.7131 12.3799 5.14761C12.905 4.58212 13.2 3.81515 13.2 3.01542C13.2 2.21569 12.905 1.44872 12.3799 0.883228C11.8548 0.317736 11.1426 4.52987e-05 10.4 4.52987e-05Z" fill="white"/>
</svg>
